<?xml version="1.0" encoding="UTF-8" standalone="no"?>
<svg
   version="1.1"
   viewBox="0 0 128 128"
   width="128"
   height="128"
   xmlns="http://www.w3.org/2000/svg"
   xmlns:svg="http://www.w3.org/2000/svg">
   <path
     d="M 53.550156,56.335048 19.098534,82.510577 c -4.368971,3.316263 -7.182306,8.137301 -7.924493,13.573135 -0.742528,5.438338 0.678049,10.836608 3.996435,15.202478 3.317552,4.36575 8.139196,7.18086 13.573135,7.92449 l 0.0017,2.3e-4 c 5.435,0.74207 10.832323,-0.67779 15.199021,-3.99606 L 78.397702,89.038709 C 85.488073,83.651921 88.263436,74.376264 85.41792,66.06198 l -7.564187,5.747509 c 0.295746,4.003264 -1.458261,7.925359 -4.668179,10.364787 l -35.318875,26.830684 -0.01905,-0.0221 c -2.474274,1.62875 -5.409711,2.30041 -8.348946,1.8991 -3.140963,-0.42886 -5.915658,-2.04149 -7.817642,-4.54203 -1.929828,-2.53915 -2.730355,-5.68749 -2.264853,-8.866758 0.42563,-2.893458 1.855368,-5.497825 4.056305,-7.419487 l -0.01523,-0.01906 0.484578,-0.371139 c 0.06393,-0.05156 0.130591,-0.104444 0.195735,-0.152441 0.01989,-0.01512 0.04085,-0.03178 0.06041,-0.0444 l 0.116758,-0.0902 34.451622,-26.175529 c 2.534912,-1.923615 5.664908,-2.745326 8.814207,-2.315333 0.814417,0.111197 1.611503,0.30579 2.382658,0.578359 l 7.572827,-5.754821 C 74.925945,53.929576 71.910752,52.772358 68.749783,52.340772 63.316336,51.59976 57.91746,53.018557 53.550156,56.335048 M 116.82614,31.914519 c 0.74207,-5.435 -0.67839,-10.834103 -3.99595,-15.199854 C 109.51238,12.344632 104.69134,9.5312981 99.255506,8.789111 93.82134,8.047151 88.423297,9.4660621 84.056371,12.786001 L 49.60259,38.958688 c -7.08552,5.382356 -9.863307,14.650889 -7.028172,22.960359 l 7.24385,-5.503392 c -0.233914,-3.740932 1.318662,-7.431546 4.169644,-9.922528 l -0.015,-0.02073 0.476166,-0.365494 c 0.06097,-0.04857 0.127407,-0.09978 0.190997,-0.148843 0.01978,-0.01428 0.0379,-0.02879 0.05851,-0.04296 l 0.119487,-0.09153 34.450561,-26.173975 c 2.534305,-1.925396 5.666083,-2.747713 8.81955,-2.317151 3.154297,0.430676 5.950177,2.062331 7.875567,4.596636 3.97471,5.230731 2.95162,12.723862 -2.27937,16.694286 L 68.371227,65.45567 68.352517,65.43104 c -2.477721,1.629133 -5.408271,2.302306 -8.34834,1.900881 -0.792743,-0.108238 -1.565618,-0.293582 -2.314078,-0.552013 l -7.242903,5.502672 c 2.617038,1.784706 5.632609,2.945371 8.800247,3.377868 5.437501,0.742415 10.835543,-0.676496 15.202128,-3.993934 L 108.90191,45.491936 c 4.36787,-3.320659 7.18192,-8.14075 7.92423,-13.577417"
     fill="#6770dc" />
   <path
     d="M 41.948235,47.952926 H 35.25553 L 19.916998,30.687311 16.062833,34.801892 V 47.952926 H 10.906586 V 9.1769075 h 5.156247 V 29.41127 L 34.890947,9.1769075 h 6.249996 L 23.823245,27.406063 Z"
     fill="#d45500" />
   <path
     d="m 76.974255,36.02585 q 0,2.890623 -1.09375,5.104163 -1.093749,2.213541 -2.942706,3.645831 -2.187499,1.718749 -4.817706,2.447916 -2.604165,0.729166 -6.640621,0.729166 H 47.72948 V 9.1769075 h 11.484368 q 4.24479,0 6.354163,0.3125 2.109374,0.3125 4.036456,1.3020825 2.135416,1.119791 3.098957,2.890623 0.963541,1.74479 0.963541,4.192706 0,2.760415 -1.406249,4.713539 -1.406249,1.927082 -3.749998,3.098956 v 0.208333 q 3.932289,0.807291 6.197913,3.46354 2.265624,2.630207 2.265624,6.666663 z m -8.67187,-17.473948 q 0,-1.40625 -0.46875,-2.369791 -0.46875,-0.963541 -1.510416,-1.562499 -1.223957,-0.703124 -2.968748,-0.859374 -1.744791,-0.182292 -4.322914,-0.182292 h -6.14583 v 11.19791 h 6.666663 q 2.421874,0 3.854164,-0.234375 1.432291,-0.260416 2.656249,-1.041666 1.223957,-0.781249 1.718749,-2.005207 0.520833,-1.249999 0.520833,-2.942706 z m 3.307289,17.682281 q 0,-2.343749 -0.703124,-3.723956 -0.703125,-1.380208 -2.552082,-2.343749 -1.249999,-0.651041 -3.046873,-0.833333 -1.770832,-0.208333 -4.322914,-0.208333 h -8.098954 v 14.427075 h 6.822913 q 3.385415,0 5.546872,-0.338542 2.161457,-0.364583 3.541664,-1.302082 1.458333,-1.015625 2.135416,-2.317707 0.677082,-1.302083 0.677082,-3.359373 z"
     fill="#d45500" />
   <path
     d="M 77.099145,119.53831 H 71.942898 V 86.126874 L 61.161654,108.86124 H 58.088739 L 47.385621,86.126874 V 119.53831 H 42.567915 V 80.762294 h 7.031246 l 10.338536,21.588526 9.999994,-21.588526 h 7.161454 z"
     fill="#ff2a7f" />
   <path
     d="m 116.76058,107.61124 q 0,2.89062 -1.09375,5.10416 -1.09375,2.21354 -2.9427,3.64583 -2.1875,1.71875 -4.81771,2.44792 -2.60417,0.72916 -6.64062,0.72916 H 87.515806 V 80.762294 h 11.484369 q 4.244785,0 6.354165,0.3125 2.10937,0.3125 4.03645,1.302083 2.13542,1.119791 3.09896,2.890623 0.96354,1.74479 0.96354,4.192706 0,2.760415 -1.40625,4.713539 -1.40625,1.927082 -3.75,3.098956 v 0.208333 q 3.93229,0.807291 6.19792,3.463536 2.26562,2.63021 2.26562,6.66667 z m -8.67187,-17.473951 q 0,-1.40625 -0.46875,-2.369791 -0.46875,-0.963541 -1.51042,-1.562499 -1.22395,-0.703124 -2.96874,-0.859374 -1.74479,-0.182292 -4.322917,-0.182292 h -6.14583 v 11.19791 h 6.666663 q 2.421874,0 3.854164,-0.234375 1.43229,-0.260416 2.65625,-1.041666 1.22396,-0.781249 1.71875,-2.005207 0.52083,-1.249999 0.52083,-2.942706 z m 3.30729,17.682281 q 0,-2.34375 -0.70312,-3.72396 -0.70313,-1.3802 -2.55209,-2.34375 -1.25,-0.65104 -3.04687,-0.83333 -1.77083,-0.20833 -4.32291,-0.20833 h -8.098957 v 14.42707 h 6.822913 q 3.385414,0 5.546874,-0.33854 2.16145,-0.36458 3.54166,-1.30208 1.45833,-1.01563 2.13542,-2.31771 0.67708,-1.30208 0.67708,-3.35937 z"
     fill="#ff2a7f" />
</svg>
